<svg width="49" height="48" viewBox="0 0 49 48" fill="none" xmlns="http://www.w3.org/2000/svg">
<g clip-path="url(#clip0_4172_2648)">
<path d="M48.2745 23.925C48.2745 37.14 37.4695 47.85 24.1373 47.85C10.805 47.85 0 37.14 0 23.925C0 10.71 10.805 0 24.1373 0C37.4695 0 48.2745 10.71 48.2745 23.925Z" fill="white"/>
<path d="M35.4872 22.2596C31.6434 19.6721 26.7251 20.7296 24.1449 24.6146C21.996 27.8696 18.7424 28.2746 17.4864 28.2746C13.3702 28.2746 10.5705 25.4096 9.73065 22.4471C9.73065 22.4471 9.71552 22.3871 9.70795 22.3646C9.70039 22.3346 9.69282 22.2971 9.68525 22.2671C9.35989 21.0296 9.27666 20.4371 9.27666 19.1246C9.27666 12.0371 16.6162 4.14711 27.1715 4.14711C37.7268 4.14711 44.1811 12.3071 45.7776 16.8446C45.7474 16.7621 45.7171 16.6796 45.6944 16.6046C42.6148 7.72461 34.1252 1.34961 24.1298 1.34961C11.5542 1.34961 1.35449 11.4521 1.35449 23.9246C1.35449 35.0696 9.46582 44.6096 20.7173 44.6096C29.6912 44.6096 35.7217 39.6221 38.4835 32.7521C40.0044 28.9946 38.9299 24.5771 35.4872 22.2596Z" fill="#003964"/>
<path d="M45.9065 17.2806C44.5748 12.8556 38.3399 4.14062 27.1566 4.14062C16.5937 4.14062 9.26172 12.0306 9.26172 19.1181C9.26172 20.4306 9.34495 21.0231 9.67031 22.2606C9.53411 21.7206 9.46602 21.1806 9.46602 20.6481C9.46602 13.2681 16.9191 8.16062 24.5764 8.16062C34.9501 8.16062 43.3565 16.4931 43.3565 26.7756C43.3565 34.8306 38.6804 41.8131 31.8857 45.1656C40.6477 42.0231 46.9053 33.7056 46.9053 23.9331C46.9053 21.6231 46.595 19.5831 45.9065 17.2881" fill="#ED1A3B"/>
<path d="M24.1376 46.4996C36.716 46.4996 46.9129 36.3924 46.9129 23.9246C46.9129 11.4568 36.716 1.34961 24.1376 1.34961C11.5591 1.34961 1.3623 11.4568 1.3623 23.9246C1.3623 36.3924 11.5591 46.4996 24.1376 46.4996Z" stroke="#00AEEF" stroke-width="0.25" stroke-miterlimit="10"/>
</g>
<defs>
<clipPath id="clip0_4172_2648">
<rect width="49" height="48" fill="white"/>
</clipPath>
</defs>
</svg>
