<svg width="20" height="20" viewBox="0 0 20 20" fill="none" xmlns="http://www.w3.org/2000/svg">
  <path d="M10 12.5C11.3807 12.5 12.5 11.3807 12.5 10C12.5 8.61929 11.3807 7.5 10 7.5C8.61929 7.5 7.5 8.61929 7.5 10C7.5 11.3807 8.61929 12.5 10 12.5Z" stroke="currentColor" stroke-width="2"/>
  <path d="M16.32 12.9L17.71 11.51C17.8993 11.3207 18.0058 11.0654 18.0058 10.8C18.0058 10.5346 17.8993 10.2793 17.71 10.09L16.32 8.7C16.1307 8.51072 15.8754 8.40421 15.61 8.40421C15.3446 8.40421 15.0893 8.51072 14.9 8.7L13.51 10.09C13.3207 10.2793 13.2142 10.5346 13.2142 10.8C13.2142 11.0654 13.3207 11.3207 13.51 11.51L14.9 12.9C15.0893 13.0893 15.3446 13.1958 15.61 13.1958C15.8754 13.1958 16.1307 13.0893 16.32 12.9Z" stroke="currentColor" stroke-width="1"/>
</svg>